<?xml version="1.0" encoding="UTF-8" standalone="no"?>
<!-- Created with Inkscape (http://www.inkscape.org/) -->

<svg
   width="85.630554mm"
   height="125.10579mm"
   viewBox="0 0 85.630554 125.10579"
   version="1.1"
   id="svg1"
   xmlns="http://www.w3.org/2000/svg"
   xmlns:svg="http://www.w3.org/2000/svg">
  <defs
     id="defs1" />
  <g
     id="layer1"
     transform="translate(-63.241134,-136.44204)">
    <g
       id="g25">
      <path
         style="fill:none;fill-opacity:1;stroke:#000000;stroke-width:7.99999;stroke-linecap:round;stroke-linejoin:round;stroke-dasharray:none"
         d="m 124.63184,208.8059 c -7.5589,-1.76655 -2.83416,-15.12947 -8.01191,-21.41046 -6.15001,-7.46039 -13.0442,-14.54869 -23.298605,-19.95688 -15.743282,8.01601 -29.497881,29.37314 -25.241209,35.97985 5.165493,8.01729 18.974859,6.25 35.365694,1.02273 11.39175,-19.16915 20.02593,-29.06003 37.45368,-26.71504"
         id="path11" />
      <path
         style="fill:none;fill-opacity:1;stroke:#000000;stroke-width:7.99999;stroke-linecap:round;stroke-linejoin:round;stroke-dasharray:none"
         d="m 122.00442,152.15908 c 0.97239,11.83178 -4.544,19.59478 -13.00443,26.82394"
         id="path12" />
      <path
         style="fill:none;fill-opacity:1;stroke:#000000;stroke-width:7.99999;stroke-linecap:round;stroke-linejoin:round;stroke-dasharray:none"
         d="m 105.17372,140.44202 c 3.39686,8.73352 5.95291,22.69433 -5.286415,30.97331"
         id="path13" />
      <circle
         style="fill:#000000;fill-opacity:1;stroke:none;stroke-width:8;stroke-linecap:round;stroke-linejoin:round;stroke-dasharray:none"
         id="path14"
         cx="89.287407"
         cy="191.39001"
         r="5.7102265" />
    </g>
    <g
       id="g24"
       style="display:inline">
      <path
         style="fill:none;stroke:#000000;stroke-width:7.99999;stroke-linecap:round;stroke-linejoin:round"
         id="path1"
         d="m 122.15707,188.8583 a 35.541687,35.541687 0 0 1 21.45489,42.52021 35.541687,35.541687 0 0 1 -40.10548,25.68718 35.541687,35.541687 0 0 1 -29.650602,-37.27093" />
      <path
         style="fill:none;stroke:#000000;stroke-width:7.99999;stroke-linecap:round;stroke-linejoin:round"
         id="path2"
         d="m 105.65311,207.35938 a 32.004368,32.004368 0 0 1 10.83941,25.05778 32.004368,32.004368 0 0 1 -12.43848,24.30369" />
      <path
         style="fill:none;stroke:#000000;stroke-width:7.99999;stroke-linecap:round;stroke-linejoin:round"
         d="m 105.6531,207.35938 c -10.169066,3.04945 -9.688566,17.60253 -3.72128,14.74289"
         id="path4" />
      <path
         style="fill:none;stroke:#000000;stroke-width:7.99999;stroke-linecap:round;stroke-linejoin:round"
         id="path5"
         d="M 116.13385,229.08561 A 28.295454,28.295454 0 0 1 93.086524,234.28237 28.295454,28.295454 0 0 1 74.130356,220.18098" />
    </g>
  </g>
</svg>
